<svg
   xmlns:dc="http://purl.org/dc/elements/1.1/"
   xmlns:cc="http://creativecommons.org/ns#"
   xmlns:rdf="http://www.w3.org/1999/02/22-rdf-syntax-ns#"
   xmlns:svg="http://www.w3.org/2000/svg"
   xmlns="http://www.w3.org/2000/svg"
   xmlns:sodipodi="http://sodipodi.sourceforge.net/DTD/sodipodi-0.dtd"
   xmlns:inkscape="http://www.inkscape.org/namespaces/inkscape"
   width="2000"
   height="300"
   id="svg5241"
   version="1.1"
   inkscape:version="0.48.5 r10040"
   sodipodi:docname="logo-wordmark-light.svg"
   inkscape:export-filename="/Users/anthony/dev/readthedocs/guidelines/assets/logo-wordmark-light.png"
   inkscape:export-xdpi="90"
   inkscape:export-ydpi="90">    
<path d="M136.954,305.432c-1.846,-1.163 -3.52,-4.367 -3.52,-6.573c0,-2.161 1.732,-5.127 3.849,-6.468c1.846,-1.163 3.248,-1.222 26.384,-1.222c24.423,-0 24.423,-0 26.498,1.46c4.078,2.847 4.35,9.017 0.501,12.281l-1.903,1.64l-25.039,-0c-22.52,-0 -25.267,-0.12 -26.77,-1.118Zm89.596,-0.522c-3.863,-3.264 -3.577,-9.434 0.501,-12.281c2.06,-1.46 2.06,-1.46 26.484,-1.46c23.135,-0 24.538,0.059 26.383,1.222c2.118,1.341 3.863,4.307 3.863,6.468c0,2.266 -1.745,5.41 -3.634,6.573c-1.574,0.998 -4.306,1.118 -26.77,1.118l-24.938,-0l-1.889,-1.64Zm-134.594,-46.336c-3.963,-2.564 -4.521,-8.451 -1.116,-11.998l1.903,-1.982l24.752,-0.164c26.67,-0.239 27.286,-0.12 29.46,3.085c1.503,2.146 1.617,6.811 0.287,8.838c-2.247,3.264 -2.69,3.324 -29.074,3.324c-22.02,-0.06 -24.695,-0.12 -26.212,-1.103Zm90.826,0.283c-2.461,-1.327 -3.963,-4.009 -4.02,-6.871c-0,-2.787 1.617,-5.634 4.02,-6.915c1.116,-0.582 7.383,-0.761 26.541,-0.641l25.039,0.164l1.574,1.52c1.002,1.043 1.788,2.325 2.289,3.726c0.844,2.683 -0.057,5.827 -2.289,7.974l-1.574,1.579l-25.039,0.105c-19.158,0.119 -25.425,-0 -26.541,-0.641Zm89.482,-0.403c-2.519,-1.624 -3.248,-3.144 -3.248,-6.691c-0,-3.205 1.459,-5.589 4.135,-6.752c1.287,-0.581 8.67,-0.701 26.555,-0.581l24.753,0.164l1.903,1.982c2.346,2.444 2.904,5.708 1.559,8.734c-2.003,4.426 -1.731,4.367 -29.116,4.367c-23.251,-0 -24.638,-0.06 -26.541,-1.223Zm-216.85,-46.232c-3.692,-1.624 -5.48,-6.573 -3.749,-10.418c1.788,-3.949 3.348,-4.426 14.365,-4.426l9.715,-0l14.537,-37.722l14.479,-37.722l60.365,-47.216l14.752,-30.628c8.041,-16.886 15.252,-31.314 15.982,-32.133c1.559,-1.982 4.02,-2.847 6.424,-2.385c1.402,0.283 11.632,7.855 31.749,23.578c16.383,12.743 30.519,23.921 31.463,24.86c1.116,1.043 7.211,12.922 16.54,32.312l14.708,30.673l14.752,7.69c10.001,5.246 15.152,8.212 15.81,9.315c0.572,0.939 4.149,14.561 7.941,30.389l6.882,28.706l9.829,0.283c10.846,0.357 11.905,0.7 13.579,4.426c1.345,2.966 0.729,6.29 -1.617,8.734l-1.846,1.982l-152.693,0.119c-84.002,0.06 -153.252,-0.119 -153.967,-0.417Zm270.948,-15.589c-0,-0.477 -2.576,-11.655 -5.695,-24.801l-5.766,-23.995l-7.826,-4.129c-2.676,-1.46 -5.409,-2.802 -8.156,-4.083c-0.171,-0 -0.329,4.724 -0.329,10.537c0,10.492 0,10.537 -1.631,12.579c-1.173,1.401 -6.367,4.486 -17.541,10.313c-18.272,9.539 -19.345,9.777 -23.193,6.111c-2.018,-1.923 -2.29,-2.563 -2.29,-5.067c0,-4.889 1.059,-5.828 16.039,-13.623l13.521,-7.049l0.329,-24.681l-10.502,-21.835c-5.751,-12.057 -10.616,-21.894 -10.73,-21.894c-0.172,0 -2.404,6.752 -5.023,14.964c-2.575,8.212 -5.265,15.485 -5.937,16.186c-0.616,0.7 -7.154,4.486 -14.523,8.391l-13.421,7.034l-0.271,14.8c-0.344,16.126 -0.501,16.812 -4.135,18.57c-2.576,1.282 -4.421,1.223 -6.825,-0.298c-3.792,-2.384 -3.906,-3.204 -3.749,-23.116l0.172,-17.929l1.731,-1.804c0.959,-0.983 7.998,-5.067 15.71,-9.136l13.965,-7.392l5.766,-17.989l6.038,-19.107c0.271,-0.805 -5.094,-5.291 -23.251,-19.495l-24.366,-19.047c-0.558,-0.403 -4.135,6.409 -13.421,25.799l-12.634,26.365l0,23.474c0,18.913 -0.157,23.801 -0.887,25.202c-0.458,0.999 -4.693,5.649 -9.386,10.478c-8.785,8.972 -10.173,9.896 -13.978,9.091c-2.232,-0.476 -5.094,-3.442 -5.538,-5.767c-0.729,-3.846 0.172,-5.411 7.655,-13.399l7.326,-7.735l-0,-13.623c-0,-7.452 -0.172,-13.562 -0.387,-13.562c-0.286,-0 -10.73,8.033 -23.307,17.87l-22.864,17.87l-12.119,31.73c-4.192,10.94 -8.384,21.894 -12.576,32.834c-0.344,1.043 5.465,1.103 116.809,1.103c93.33,-0 117.196,-0.105 117.196,-0.745Z" style="fill:#fff;fill-rule:nonzero;"/>

<path d="M542.73,286.405c-22.367,0 -41.633,-4.931 -57.798,-14.793c-16.165,-9.861 -28.415,-23.434 -36.752,-40.717c-8.337,-17.283 -12.505,-36.803 -12.505,-58.56c-0,-25.01 4.829,-46.462 14.487,-64.355c9.659,-17.893 23.333,-31.415 41.023,-40.565c17.69,-9.15 38.328,-13.725 61.915,-13.725c22.163,-0 47.072,3.152 74.725,9.455l-3.355,56.73l-30.805,-0l-8.235,-39.04c-2.033,-2.033 -5.897,-3.914 -11.59,-5.643c-5.693,-1.728 -13.115,-2.592 -22.265,-2.592c-19.927,-0 -35.583,8.082 -46.97,24.247c-11.387,16.165 -17.08,39.498 -17.08,69.998c-0,29.89 4.88,54.036 14.64,72.438c9.76,18.401 24.603,27.602 44.53,27.602c8.133,0 15.758,-1.017 22.875,-3.05c7.117,-2.033 12.505,-4.677 16.165,-7.93l-0,-65.575l-32.33,-3.05l-0,-20.435l92.72,0l-0,20.435l-16.165,2.745l-0,80.825c-4.27,0.203 -11.997,1.932 -23.18,5.185c-13.013,3.457 -24.146,6.049 -33.398,7.778c-9.251,1.728 -19.469,2.592 -30.652,2.592Z" style="fill:#fff;fill-rule:nonzero;"/>

<path d="M688.215,79.31l-23.485,-3.965l0,-18.91l97.6,0l-0,18.91l-29.28,3.965l-0,182.085l65.27,-2.745l19.215,-57.035l24.705,3.355l-9.455,78.08l-168.665,0l-0,-18.3l24.095,-3.05l-0,-182.39Z" style="fill:#fff;fill-rule:nonzero;"/>

<path d="M929.775,55.215l46.665,0l70.455,206.485l17.69,3.05l0,18.3l-89.975,-0l-0,-18.3l22.875,-3.05l-11.895,-39.65l-78.995,0l-11.895,39.955l24.705,2.745l-0,18.3l-77.775,-0l-0.305,-18.3l18.3,-3.05l70.15,-206.485Zm21.045,51.545l-5.49,-23.79l-5.795,24.095l-27.145,93.635l67.1,-0l-28.67,-93.94Z" style="fill:#fff;fill-rule:nonzero;"/>

<path d="M1176.21,286.405c-34.567,0 -61,-10.319 -79.3,-30.957c-18.3,-20.639 -27.45,-48.851 -27.45,-84.638c-0,-23.587 4.829,-44.174 14.487,-61.763c9.659,-17.588 22.926,-31.16 39.803,-40.717c16.877,-9.557 35.99,-14.335 57.34,-14.335c8.947,0 17.588,0.559 25.925,1.677c8.337,1.119 18.198,2.593 29.585,4.423c8.54,1.423 13.217,2.135 14.03,2.135l-3.355,62.83l-28.06,-0l-9.455,-43.615c-2.237,-2.237 -6.1,-4.067 -11.59,-5.49c-5.49,-1.423 -12.505,-2.135 -21.045,-2.135c-17.283,-0 -31.161,7.981 -41.633,23.942c-10.471,15.962 -15.707,39.091 -15.707,69.388c-0,29.28 4.982,53.172 14.945,71.675c9.963,18.503 24.502,27.755 43.615,27.755c9.15,-0 16.216,-0.864 21.197,-2.593c4.982,-1.728 9.201,-4.219 12.658,-7.472l13.42,-31.415l25.62,2.44l-6.1,47.275c-4.27,0.407 -8.489,1.169 -12.658,2.287c-4.168,1.119 -6.76,1.78 -7.777,1.983c-8.133,2.237 -15.708,4.016 -22.723,5.337c-7.015,1.322 -15.605,1.983 -25.772,1.983Z" style="fill:#fff;fill-rule:nonzero;"/>

<path d="M1301.27,79.31l-25.925,-3.965l-0,-18.91l97.6,0l-0,18.91l-26.84,3.965l-0,182.39l26.84,3.355l-0,17.995l-97.6,-0l-0,-18.3l25.925,-3.05l-0,-182.39Z" style="fill:#fff;fill-rule:nonzero;"/>

<path d="M1422.65,79.31l-24.4,-3.965l0,-18.91l162.565,0l3.965,51.24l-21.35,-0l-10.065,-30.195l-65.88,-2.745l0,82.045l42.395,-0.915l4.88,-25.01l19.52,-0l0,73.81l-19.52,-0l-4.88,-26.23l-42.395,-0.915l0,86.01l73.81,-3.66l17.69,-39.04l22.875,6.405l-7.93,55.815l-175.375,-0l0,-18.3l24.095,-3.05l0,-182.39Z" style="fill:#fff;fill-rule:nonzero;"/>

<path d="M1598.34,264.75l24.095,-3.05l0,-182.39l-22.875,-4.27l0,-18.605l44.225,0c3.863,0 8.133,-0.102 12.81,-0.305c4.677,-0.203 8.235,-0.407 10.675,-0.61c10.573,-0.813 19.317,-1.22 26.23,-1.22c20.943,0 37.718,2.135 50.325,6.405c12.607,4.27 21.757,10.777 27.45,19.52c5.693,8.743 8.54,20.232 8.54,34.465c0,14.03 -3.762,27.043 -11.285,39.04c-7.523,11.997 -18.402,20.232 -32.635,24.705c8.133,3.457 15.352,9.76 21.655,18.91c6.303,9.15 13.013,21.045 20.13,35.685c5.083,9.963 8.998,17.131 11.743,21.503c2.745,4.371 5.439,6.862 8.082,7.472l10.065,3.05l0,17.995l-51.85,0c-3.253,0 -6.659,-3.304 -10.217,-9.913c-3.559,-6.608 -8.185,-17.029 -13.878,-31.262c-6.71,-16.673 -12.505,-29.687 -17.385,-39.04c-4.88,-9.353 -10.065,-15.148 -15.555,-17.385l-31.415,0l0,76.25l28.06,3.05l0,18.3l-96.99,-0l0,-18.3Zm96.99,-97.905c11.59,-0 20.638,-4.168 27.145,-12.505c6.507,-8.337 9.76,-20.842 9.76,-37.515c0,-14.843 -3.202,-25.823 -9.607,-32.94c-6.405,-7.117 -17.436,-10.675 -33.093,-10.675c-5.693,-0 -10.522,0.254 -14.487,0.762c-3.965,0.509 -6.558,0.763 -7.778,0.763l0,91.5c2.44,0.407 8.337,0.61 17.69,0.61l10.37,-0Z" style="fill:#fff;fill-rule:nonzero;"/>
</svg>