<svg
   xmlns:dc="http://purl.org/dc/elements/1.1/"
   xmlns:cc="http://creativecommons.org/ns#"
   xmlns:rdf="http://www.w3.org/1999/02/22-rdf-syntax-ns#"
   xmlns:svg="http://www.w3.org/2000/svg"
   xmlns="http://www.w3.org/2000/svg"
   xmlns:sodipodi="http://sodipodi.sourceforge.net/DTD/sodipodi-0.dtd"
   xmlns:inkscape="http://www.inkscape.org/namespaces/inkscape"
   width="2102"
   height="600"
   id="svg5241"
   version="1.1"
   inkscape:version="0.48.5 r10040"
   sodipodi:docname="logo-wordmark-light.svg"
   inkscape:export-filename="/Users/anthony/dev/readthedocs/guidelines/assets/logo-wordmark-light.png"
   inkscape:export-xdpi="90"
   inkscape:export-ydpi="90">   

    <rect id="logo" x="0" y="0" width="2102" height="600" style="fill:none;"/>

    <clipPath id="_clip1">

    <rect x="0" y="0" width="2102" height="600"/>

</clipPath>

<g clip-path="url(#_clip1)">

    <!-- <rect x="-0" y="0" width="2364" height="600" style="fill:#2980b9;"/> -->

    <g>

    <path d="M616.383,398.46l65.853,-0.001l-0,12.15l-22.842,2.916l33.291,113.238l7.047,33.777l8.019,-33.777l27.945,-92.583l-6.561,-20.655l-17.253,-2.916l-0,-12.15l68.283,0l-0,12.15l-23.814,2.916l32.805,113.238l8.262,36.45l6.804,-36.45l30.618,-113.238l-24.057,-2.916l-0,-12.15l57.834,0l-0,12.15l-16.038,2.916l-48.357,166.698l-23.814,0l-37.179,-121.743l-35.964,121.743l-23.085,0l-51.759,-166.455l-16.038,-3.159l-0,-12.15Z" style="fill:#fff;fill-rule:nonzero;"/>

    <path d="M948.807,581.681c-16.524,0 -30.497,-3.807 -41.918,-11.421c-11.421,-7.614 -20.047,-18.346 -25.879,-32.197c-5.832,-13.851 -8.748,-29.929 -8.748,-48.236c-0,-18.63 3.523,-34.991 10.57,-49.086c7.047,-14.094 16.727,-24.988 29.039,-32.683c12.312,-7.695 26.163,-11.543 41.553,-11.543c25.272,0 44.59,7.979 57.955,23.936c13.365,15.957 20.048,38.03 20.048,66.218c-0,18.953 -3.605,35.599 -10.814,49.936c-7.209,14.337 -17.091,25.434 -29.646,33.291c-12.555,7.857 -26.608,11.785 -42.16,11.785Zm3.159,-172.53c-15.714,0 -28.107,6.845 -37.179,20.534c-9.072,13.689 -13.608,33.736 -13.608,60.142c-0,24.301 4.414,43.538 13.243,57.713c8.829,14.175 21.182,21.262 37.058,21.262c15.552,0 27.904,-7.047 37.057,-21.141c9.153,-14.094 13.73,-34.344 13.73,-60.75c-0,-24.462 -4.374,-43.537 -13.122,-57.226c-8.748,-13.689 -21.141,-20.534 -37.179,-20.534Z" style="fill:#fff;fill-rule:nonzero;"/>

<path d="M1050.62,567.102l20.169,-2.431l-0,-151.145l-18.954,-3.159l-0,-11.907l31.833,-0c4.536,-0 10.692,-0.325 18.468,-0.972c8.1,-0.649 14.418,-0.973 18.954,-0.973c23.814,0 40.783,3.848 50.908,11.543c10.125,7.695 15.188,19.804 15.188,36.328c-0,11.502 -3.2,22.033 -9.599,31.591c-6.399,9.558 -15.187,16.038 -26.365,19.44c5.184,2.753 10.003,7.492 14.458,14.215c4.455,6.723 9.923,16.078 16.403,28.067c5.022,9.072 8.869,15.714 11.542,19.926c2.673,4.212 5.225,6.56 7.655,7.046l9.477,2.43l-0,11.907l-33.534,0c-2.592,0 -5.508,-2.794 -8.748,-8.383c-3.24,-5.589 -7.533,-14.216 -12.879,-25.88c-5.832,-12.798 -10.895,-22.963 -15.188,-30.496c-4.293,-7.533 -8.545,-12.353 -12.757,-14.459c-17.334,0 -27.621,-0.081 -30.861,-0.243l-0,65.124l24.057,2.43l-0,11.907l-70.227,0l-0,-11.907Zm75.087,-80.433c10.368,0 18.549,-3.401 24.543,-10.206c5.994,-6.803 8.991,-16.928 8.991,-30.375c-0,-11.826 -3.038,-20.857 -9.113,-27.094c-6.075,-6.237 -16.564,-9.356 -31.468,-9.356c-5.184,0 -10.368,0.325 -15.552,0.972c-3.24,0.325 -5.346,0.486 -6.318,0.486l0,75.331c2.43,0.161 7.452,0.243 15.066,0.243l13.851,-0Z" style="fill:#fff;fill-rule:nonzero;"/>

<path d="M1352.43,579.008c-2.754,0 -6.278,-3.28 -10.571,-9.841c-4.293,-6.561 -10.408,-16.889 -18.346,-30.983c-0.972,-1.782 -3.686,-6.601 -8.141,-14.458c-4.455,-7.857 -8.586,-14.621 -12.393,-20.291c-3.807,-5.67 -7.168,-10.125 -10.084,-13.365l-24.543,27.702l-0,46.899l22.113,2.43l-0,11.907l-68.283,0l-0,-11.907l20.169,-2.43l-0,-151.146l-19.926,-2.916l-0,-12.15l66.096,0l-0,12.15l-20.169,2.916l-0,85.05l71.442,-85.05l-20.412,-2.916l-0,-12.15l60.021,0l-0,12.15l-18.711,2.916l-52.488,58.806c5.67,4.86 11.704,11.907 18.103,21.141c6.399,9.234 14.216,21.141 23.45,35.721c7.938,12.474 13.729,21.344 17.374,26.609c3.645,5.265 6.521,8.14 8.627,8.626l11.421,2.673l-0,11.907l-34.749,0Z" style="fill:#fff;fill-rule:nonzero;"/>

<path d="M1457.41,581.681c-8.424,0 -15.957,-0.729 -22.599,-2.187c-6.642,-1.458 -13.932,-3.402 -21.87,-5.832c-4.86,-1.782 -8.505,-2.754 -10.935,-2.916l1.944,-43.982l15.552,-0l4.131,31.589c2.754,2.592 7.249,4.901 13.486,6.926c6.237,2.025 13.082,3.037 20.534,3.037c12.312,0 21.667,-2.754 28.066,-8.262c6.399,-5.508 9.599,-13.122 9.599,-22.842c-0,-6.318 -1.742,-11.745 -5.225,-16.281c-3.483,-4.536 -8.1,-8.424 -13.851,-11.664c-5.751,-3.24 -13.648,-7.047 -23.692,-11.421c-9.072,-4.05 -16.97,-8.181 -23.693,-12.393c-6.723,-4.212 -12.555,-9.841 -17.496,-16.888c-4.941,-7.047 -7.411,-15.512 -7.411,-25.394c-0,-8.91 2.389,-16.888 7.168,-23.935c4.779,-7.047 11.664,-12.596 20.655,-16.646c8.991,-4.05 19.481,-6.075 31.469,-6.075c7.452,0 14.053,0.567 19.804,1.701c5.751,1.134 12.272,2.673 19.562,4.617c3.24,1.134 5.994,1.863 8.262,2.187l-1.458,40.824l-14.823,0l-4.86,-29.889c-1.62,-1.62 -4.982,-3.159 -10.085,-4.617c-5.102,-1.458 -10.651,-2.187 -16.645,-2.187c-11.178,0 -19.642,2.349 -25.394,7.047c-5.751,4.698 -8.626,11.502 -8.626,20.412c-0,6.48 1.741,11.907 5.225,16.281c3.483,4.374 7.816,8.1 13,11.178c5.184,3.078 13.446,7.29 24.786,12.636c10.53,5.022 19.116,9.558 25.758,13.608c6.642,4.05 12.352,9.356 17.131,15.917c4.779,6.561 7.169,14.377 7.169,23.449c-0,8.586 -2.39,16.848 -7.169,24.786c-4.779,7.938 -12.069,14.459 -21.87,19.562c-9.801,5.103 -21.667,7.654 -35.599,7.654Z" style="fill:#fff;fill-rule:nonzero;"/>

<path d="M1563.11,413.525l-19.197,-2.916l0,-12.15l66.096,0l0,12.15l-20.898,2.916l0,65.367l85.536,0l-0,-65.367l-19.683,-2.916l-0,-12.15l65.124,0l-0,12.15l-19.197,2.916l-0,151.146l19.197,2.43l-0,11.907l-65.367,0l-0,-11.907l19.926,-2.43l-0,-70.713l-85.536,0l0,70.713l21.141,2.43l-0,11.907l-66.825,0l-0,-11.907l19.683,-2.43l0,-151.146Z" style="fill:#fff;fill-rule:nonzero;"/>

<path d="M1817.29,581.681c-16.524,0 -30.497,-3.807 -41.918,-11.421c-11.421,-7.614 -20.047,-18.346 -25.879,-32.197c-5.832,-13.851 -8.748,-29.929 -8.748,-48.236c-0,-18.63 3.523,-34.991 10.57,-49.086c7.047,-14.094 16.727,-24.988 29.039,-32.683c12.312,-7.695 26.163,-11.543 41.553,-11.543c25.272,0 44.59,7.979 57.955,23.936c13.365,15.957 20.048,38.03 20.048,66.218c-0,18.953 -3.605,35.599 -10.814,49.936c-7.209,14.337 -17.091,25.434 -29.646,33.291c-12.555,7.857 -26.608,11.785 -42.16,11.785Zm3.159,-172.53c-15.714,0 -28.107,6.845 -37.179,20.534c-9.072,13.689 -13.608,33.736 -13.608,60.142c-0,24.301 4.414,43.538 13.243,57.713c8.829,14.175 21.182,21.262 37.058,21.262c15.552,0 27.904,-7.047 37.057,-21.141c9.153,-14.094 13.73,-34.344 13.73,-60.75c-0,-24.462 -4.374,-43.537 -13.122,-57.226c-8.748,-13.689 -21.141,-20.534 -37.179,-20.534Z" style="fill:#fff;fill-rule:nonzero;"/>

<path d="M1939.76,413.525l-18.954,-2.916l-0,-12.15l32.319,0c5.832,0 11.583,-0.243 17.253,-0.729c8.748,-0.648 17.01,-0.972 24.786,-0.972c23.49,0.162 40.095,4.536 49.815,13.122c9.72,8.586 14.58,21.546 14.58,38.88c-0,12.96 -2.997,24.219 -8.991,33.777c-5.994,9.558 -14.297,16.848 -24.908,21.87c-10.611,5.022 -22.801,7.533 -36.571,7.533c-4.698,0 -9.477,-0.121 -14.337,-0.364c-4.86,-0.243 -7.857,-0.446 -8.991,-0.608l-0,53.46l33.291,2.673l-0,11.907l-79.461,0l-0,-11.907l20.169,-2.43l-0,-151.146Zm26.001,84.078c4.536,0.81 12.312,1.215 23.328,1.215c12.798,0 23.206,-3.888 31.225,-11.664c8.019,-7.776 12.029,-20.493 12.029,-38.151c-0,-13.932 -3.483,-23.935 -10.449,-30.01c-6.966,-6.075 -17.82,-9.113 -32.562,-9.113c-5.184,0 -10.692,0.324 -16.524,0.972c-3.564,0.324 -5.913,0.486 -7.047,0.486l-0,86.265Z" style="fill:#fff;fill-rule:nonzero;"/>

</g>

<g>

    <path d="M668.908,74.752l-33.292,-5.278l0,-25.172l224.112,-0l4.06,73.486l-32.48,-0l-15.022,-44.66l-87.696,-4.466l0,114.898l60.494,-1.218l7.714,-35.728l25.984,-0l0,103.124l-25.578,-0l-8.12,-36.54l-60.494,-1.624l0,105.966l62.118,4.06l0,24.36l-153.062,-0l0,-24.36l31.262,-4.06l0,-242.788Z" style="fill:#fff;fill-rule:nonzero;"/>

    <path d="M921.44,74.752l-32.48,-5.278l0,-25.172l216.398,-0l5.278,68.208l-28.42,-0l-13.398,-40.194l-87.696,-3.654l0,109.214l56.434,-1.218l6.496,-33.292l25.984,-0l0,98.252l-25.984,-0l-6.496,-34.916l-56.434,-1.218l0,114.492l98.252,-4.872l23.548,-51.968l30.45,8.526l-10.556,74.298l-233.45,-0l0,-24.36l32.074,-4.06l0,-242.788Z" style="fill:#fff;fill-rule:nonzero;"/>

<path d="M1180.47,158.794l-25.984,-7.308l0,-28.014l67.396,-8.526l1.218,-0l10.15,8.12l0,15.834l-0.406,9.744c9.473,-8.932 21.789,-16.646 36.946,-23.142c15.157,-6.496 30.45,-9.744 45.878,-9.744c16.511,-0 29.435,3.045 38.773,9.135c9.338,6.09 16.037,15.631 20.097,28.623c4.06,12.992 6.09,30.585 6.09,52.78l0,112.056l24.766,3.248l0,24.36l-104.748,-0l0,-24.36l21.924,-3.248l0,-112.056c0,-14.075 -0.947,-25.104 -2.842,-33.089c-1.895,-7.985 -5.346,-13.804 -10.353,-17.458c-5.007,-3.654 -12.112,-5.481 -21.315,-5.481c-15.428,-0 -31.939,6.631 -49.532,19.894l0,147.784l24.36,3.654l0,24.36l-105.966,-0l0,-24.36l23.548,-3.654l0,-159.152Z" style="fill:#fff;fill-rule:nonzero;"/>

<path d="M1482.53,83.278c-9.744,-0 -17.458,-2.842 -23.142,-8.526c-5.684,-5.684 -8.526,-12.992 -8.526,-21.924c0,-10.285 3.248,-18.811 9.744,-25.578c6.496,-6.767 15.157,-10.15 25.984,-10.15c10.827,-0 19.082,2.91 24.766,8.729c5.684,5.819 8.526,13.06 8.526,21.721c0,10.827 -3.248,19.488 -9.744,25.984c-6.496,6.496 -15.563,9.744 -27.202,9.744l-0.406,-0Zm-21.518,75.516l-28.826,-7.714l0,-27.202l74.298,-8.932l0.812,-0l11.368,8.12l0,195.286l27.202,3.248l0,24.36l-113.274,-0l0,-24.36l28.42,-3.654l0,-159.152Z" style="fill:#fff;fill-rule:nonzero;"/>

<path d="M1710.7,350.426c-46.013,-0 -81.2,-13.736 -105.56,-41.209c-24.36,-27.473 -36.54,-65.028 -36.54,-112.665c0,-31.397 6.428,-58.802 19.285,-82.215c12.857,-23.413 30.518,-41.48 52.983,-54.201c22.465,-12.721 47.908,-19.082 76.328,-19.082c11.909,-0 23.413,0.744 34.51,2.233c11.097,1.489 24.225,3.451 39.382,5.887c11.368,1.895 17.593,2.842 18.676,2.842l-4.466,83.636l-37.352,-0l-12.586,-58.058c-2.977,-2.977 -8.12,-5.413 -15.428,-7.308c-7.308,-1.895 -16.646,-2.842 -28.014,-2.842c-23.007,-0 -41.48,10.624 -55.419,31.871c-13.939,21.247 -20.909,52.036 -20.909,92.365c0,38.976 6.631,70.779 19.894,95.41c13.263,24.631 32.615,36.946 58.058,36.946c12.18,-0 21.586,-1.15 28.217,-3.451c6.631,-2.301 12.248,-5.616 16.849,-9.947l17.864,-41.818l34.104,3.248l-8.12,62.93c-5.684,0.541 -11.3,1.556 -16.849,3.045c-5.549,1.489 -9,2.368 -10.353,2.639c-10.827,2.977 -20.909,5.346 -30.247,7.105c-9.338,1.759 -20.774,2.639 -34.307,2.639Z" style="fill:#fff;fill-rule:nonzero;"/>

<path d="M1944.56,350.426c-14.616,-0 -27.743,-1.218 -39.382,-3.654c-11.639,-2.436 -24.631,-5.684 -38.976,-9.744c-9.473,-2.707 -15.834,-4.195 -19.082,-4.466l3.654,-75.11l32.886,-0l8.932,52.374c3.519,3.789 9.812,7.173 18.879,10.15c9.067,2.977 19.42,4.466 31.059,4.466c18.135,-0 31.736,-3.992 40.803,-11.977c9.067,-7.985 13.601,-19.15 13.601,-33.495c0,-9.473 -2.707,-17.661 -8.12,-24.563c-5.413,-6.902 -12.857,-13.127 -22.33,-18.676c-9.473,-5.549 -22.465,-11.977 -38.976,-19.285c-22.465,-10.285 -41.074,-22.533 -55.825,-36.743c-14.751,-14.21 -22.127,-33.495 -22.127,-57.855c0,-15.157 3.925,-28.894 11.774,-41.209c7.849,-12.315 19.556,-22.059 35.119,-29.232c15.563,-7.173 34.578,-10.759 57.043,-10.759c13.263,-0 24.969,0.947 35.119,2.842c10.15,1.895 21.18,4.466 33.089,7.714c7.037,1.895 12.315,3.113 15.834,3.654l-2.436,71.05l-32.48,-0l-8.526,-49.938c-2.436,-2.436 -7.308,-4.804 -14.616,-7.105c-7.308,-2.301 -15.428,-3.451 -24.36,-3.451c-16.24,-0 -28.488,3.722 -36.743,11.165c-8.255,7.443 -12.383,17.39 -12.383,29.841c0,10.015 3.045,18.676 9.135,25.984c6.09,7.308 13.466,13.466 22.127,18.473c8.661,5.007 22.33,12.112 41.006,21.315c15.157,7.308 28.149,14.481 38.976,21.518c10.827,7.037 20.165,16.172 28.014,27.405c7.849,11.233 11.774,24.428 11.774,39.585c0,14.887 -3.722,29.097 -11.165,42.63c-7.443,13.533 -19.623,24.766 -36.54,33.698c-16.917,8.932 -38.502,13.398 -64.757,13.398Z" style="fill:#fff;fill-rule:nonzero;"/>

</g>

<path d="M332.674,136.271l-0,-90.235c-0,-9.816 -7.97,-17.786 -17.787,-17.786c-9.816,0 -17.786,7.97 -17.786,17.786l0,90.235c0,9.817 7.97,17.786 17.786,17.786c9.817,0 17.787,-7.969 17.787,-17.786Z" style="fill:#fff;fill-opacity:0.62;"/>

<path d="M326.396,492.537l0,-51.027c0,-6.352 -5.157,-11.509 -11.509,-11.509c-6.352,0 -11.508,5.157 -11.508,11.509l-0,51.027c-0,6.351 5.156,11.508 11.508,11.508c6.352,0 11.509,-5.157 11.509,-11.508Z" style="fill:#fff;"/>

<path d="M438.562,380.047l96.476,55.7c8.501,4.909 19.388,1.992 24.296,-6.51c4.908,-8.501 1.991,-19.388 -6.51,-24.296l-96.476,-55.701c-8.502,-4.908 -19.388,-1.991 -24.297,6.51c-4.908,8.502 -1.991,19.389 6.511,24.297Z" style="fill:#fff;fill-opacity:0.62;"/>

<path d="M92.509,435.747l96.476,-55.7c8.501,-4.908 11.419,-15.795 6.51,-24.297c-4.908,-8.501 -15.795,-11.418 -24.296,-6.51l-96.476,55.701c-8.502,4.908 -11.419,15.795 -6.511,24.296c4.909,8.502 15.796,11.419 24.297,6.51Z" style="fill:#fff;fill-opacity:0.62;"/>

<path d="M323.001,120.443c-5.056,-2.592 -11.047,-2.612 -16.12,-0.054l-134.796,67.955c-5.997,3.023 -9.779,9.166 -9.779,15.882l-0,161.531c-0,6.429 3.468,12.357 9.072,15.506l134.796,75.753c5.344,3.003 11.859,3.043 17.24,0.104l132.567,-72.411c5.709,-3.118 9.26,-9.104 9.26,-15.609l-0,-164.874c-0,-6.673 -3.735,-12.784 -9.673,-15.828l-132.567,-67.955Zm-8.181,35.781l114.848,58.871c0,0 0,143.453 0,143.453c0,0 -114.658,62.629 -114.658,62.629c-0,-0 -117.132,-65.826 -117.132,-65.826c0,-0 0,-140.173 0,-140.173l116.942,-58.954Z" style="fill:#fff;fill-opacity:0.77;"/>

<path d="M314.887,239.112c-22.217,-0 -40.255,18.037 -40.255,40.254c0,22.218 18.038,40.255 40.255,40.255c22.218,0 40.255,-18.037 40.255,-40.255c0,-22.217 -18.037,-40.254 -40.255,-40.254Zm0,12.555c15.288,-0 27.7,12.411 27.7,27.699c0,15.288 -12.412,27.7 -27.7,27.7c-15.288,0 -27.699,-12.412 -27.699,-27.7c-0,-15.288 12.411,-27.699 27.699,-27.699Z" style="fill:#fff;"/>

<path d="M105.453,122.642c-22.217,0 -40.255,18.038 -40.255,40.255c0,22.217 18.038,40.255 40.255,40.255c22.217,-0 40.255,-18.038 40.255,-40.255c0,-22.217 -18.038,-40.255 -40.255,-40.255Zm0,12.555c15.288,0 27.7,12.412 27.7,27.7c0,15.288 -12.412,27.7 -27.7,27.7c-15.288,-0 -27.7,-12.412 -27.7,-27.7c0,-15.288 12.412,-27.7 27.7,-27.7Z" style="fill:#fff;"/>

<path d="M314.887,491.49c-22.217,0 -40.255,18.038 -40.255,40.255c0,22.217 18.038,40.255 40.255,40.255c22.218,0 40.255,-18.038 40.255,-40.255c0,-22.217 -18.037,-40.255 -40.255,-40.255Zm0,12.555c15.288,0 27.7,12.412 27.7,27.7c0,15.288 -12.412,27.7 -27.7,27.7c-15.288,-0 -27.699,-12.412 -27.699,-27.7c-0,-15.288 12.411,-27.7 27.699,-27.7Z" style="fill:#fff;"/>

<path d="M520.86,122.642c-22.218,0 -40.255,18.038 -40.255,40.255c-0,22.217 18.037,40.255 40.255,40.255c22.217,-0 40.255,-18.038 40.255,-40.255c-0,-22.217 -18.038,-40.255 -40.255,-40.255Zm-0,12.555c15.288,0 27.7,12.412 27.7,27.7c-0,15.288 -12.412,27.7 -27.7,27.7c-15.288,-0 -27.7,-12.412 -27.7,-27.7c-0,-15.288 12.412,-27.7 27.7,-27.7Z" style="fill:#fff;"/>

<path d="M326.396,308.122l-23.017,0l-0,131.16c-0,6.352 5.156,11.509 11.508,11.509c6.352,-0 11.509,-5.157 11.509,-11.509l0,-131.16Zm-44.728,-32.227l11.198,-20.085l-147.868,-83.405c-5.557,-3.077 -12.567,-1.064 -15.644,4.493c-3.077,5.557 -1.063,12.566 4.494,15.643l147.82,83.354Z" style="fill:#fff;"/>

<path d="M354.088,269.128l138.478,-76.572c5.535,-3.117 7.499,-10.14 4.383,-15.675c-3.117,-5.535 -10.14,-7.499 -15.675,-4.382l-138.478,76.572c-5.535,3.116 -7.499,10.14 -4.382,15.675c3.116,5.535 10.14,7.498 15.674,4.382Z" style="fill:#fff;"/>

</g>

</svg>
