<svg
   xmlns:dc="http://purl.org/dc/elements/1.1/"
   xmlns:cc="http://creativecommons.org/ns#"
   xmlns:rdf="http://www.w3.org/1999/02/22-rdf-syntax-ns#"
   xmlns:svg="http://www.w3.org/2000/svg"
   xmlns="http://www.w3.org/2000/svg"
   xmlns:sodipodi="http://sodipodi.sourceforge.net/DTD/sodipodi-0.dtd"
   xmlns:inkscape="http://www.inkscape.org/namespaces/inkscape"
   width="2102"
   height="600"
   id="svg5241"
   version="1.1"
   inkscape:version="0.48.5 r10040"
   sodipodi:docname="logo-wordmark-light.svg"
   inkscape:export-filename="/Users/anthony/dev/readthedocs/guidelines/assets/logo-wordmark-light.png"
   inkscape:export-xdpi="90"
   inkscape:export-ydpi="90">   

    <rect id="logo" x="0" y="0" width="2102" height="600" style="fill:none;"/>

    <clipPath id="_clip1">

    <rect x="0" y="0" width="2102" height="600"/>

</clipPath>

<g clip-path="url(#_clip1)">

    <rect x="-0" y="0" width="2364" height="600" style="fill:#2980b9;"/>

    <g>

    <path d="M668.908,74.752l-33.292,-5.278l0,-25.172l224.112,-0l4.06,73.486l-32.48,-0l-15.022,-44.66l-87.696,-4.466l0,114.898l60.494,-1.218l7.714,-35.728l25.984,-0l0,103.124l-25.578,-0l-8.12,-36.54l-60.494,-1.624l0,105.966l62.118,4.06l0,24.36l-153.062,-0l0,-24.36l31.262,-4.06l0,-242.788Z" style="fill:#fff;fill-rule:nonzero;"/>

    <path d="M921.44,74.752l-32.48,-5.278l0,-25.172l216.398,-0l5.278,68.208l-28.42,-0l-13.398,-40.194l-87.696,-3.654l0,109.214l56.434,-1.218l6.496,-33.292l25.984,-0l0,98.252l-25.984,-0l-6.496,-34.916l-56.434,-1.218l0,114.492l98.252,-4.872l23.548,-51.968l30.45,8.526l-10.556,74.298l-233.45,-0l0,-24.36l32.074,-4.06l0,-242.788Z" style="fill:#fff;fill-rule:nonzero;"/>

<path d="M1180.47,158.794l-25.984,-7.308l0,-28.014l67.396,-8.526l1.218,-0l10.15,8.12l0,15.834l-0.406,9.744c9.473,-8.932 21.789,-16.646 36.946,-23.142c15.157,-6.496 30.45,-9.744 45.878,-9.744c16.511,-0 29.435,3.045 38.773,9.135c9.338,6.09 16.037,15.631 20.097,28.623c4.06,12.992 6.09,30.585 6.09,52.78l0,112.056l24.766,3.248l0,24.36l-104.748,-0l0,-24.36l21.924,-3.248l0,-112.056c0,-14.075 -0.947,-25.104 -2.842,-33.089c-1.895,-7.985 -5.346,-13.804 -10.353,-17.458c-5.007,-3.654 -12.112,-5.481 -21.315,-5.481c-15.428,-0 -31.939,6.631 -49.532,19.894l0,147.784l24.36,3.654l0,24.36l-105.966,-0l0,-24.36l23.548,-3.654l0,-159.152Z" style="fill:#fff;fill-rule:nonzero;"/>

<path d="M1482.53,83.278c-9.744,-0 -17.458,-2.842 -23.142,-8.526c-5.684,-5.684 -8.526,-12.992 -8.526,-21.924c0,-10.285 3.248,-18.811 9.744,-25.578c6.496,-6.767 15.157,-10.15 25.984,-10.15c10.827,-0 19.082,2.91 24.766,8.729c5.684,5.819 8.526,13.06 8.526,21.721c0,10.827 -3.248,19.488 -9.744,25.984c-6.496,6.496 -15.563,9.744 -27.202,9.744l-0.406,-0Zm-21.518,75.516l-28.826,-7.714l0,-27.202l74.298,-8.932l0.812,-0l11.368,8.12l0,195.286l27.202,3.248l0,24.36l-113.274,-0l0,-24.36l28.42,-3.654l0,-159.152Z" style="fill:#fff;fill-rule:nonzero;"/>

<path d="M1710.7,350.426c-46.013,-0 -81.2,-13.736 -105.56,-41.209c-24.36,-27.473 -36.54,-65.028 -36.54,-112.665c0,-31.397 6.428,-58.802 19.285,-82.215c12.857,-23.413 30.518,-41.48 52.983,-54.201c22.465,-12.721 47.908,-19.082 76.328,-19.082c11.909,-0 23.413,0.744 34.51,2.233c11.097,1.489 24.225,3.451 39.382,5.887c11.368,1.895 17.593,2.842 18.676,2.842l-4.466,83.636l-37.352,-0l-12.586,-58.058c-2.977,-2.977 -8.12,-5.413 -15.428,-7.308c-7.308,-1.895 -16.646,-2.842 -28.014,-2.842c-23.007,-0 -41.48,10.624 -55.419,31.871c-13.939,21.247 -20.909,52.036 -20.909,92.365c0,38.976 6.631,70.779 19.894,95.41c13.263,24.631 32.615,36.946 58.058,36.946c12.18,-0 21.586,-1.15 28.217,-3.451c6.631,-2.301 12.248,-5.616 16.849,-9.947l17.864,-41.818l34.104,3.248l-8.12,62.93c-5.684,0.541 -11.3,1.556 -16.849,3.045c-5.549,1.489 -9,2.368 -10.353,2.639c-10.827,2.977 -20.909,5.346 -30.247,7.105c-9.338,1.759 -20.774,2.639 -34.307,2.639Z" style="fill:#fff;fill-rule:nonzero;"/>

<path d="M1944.56,350.426c-14.616,-0 -27.743,-1.218 -39.382,-3.654c-11.639,-2.436 -24.631,-5.684 -38.976,-9.744c-9.473,-2.707 -15.834,-4.195 -19.082,-4.466l3.654,-75.11l32.886,-0l8.932,52.374c3.519,3.789 9.812,7.173 18.879,10.15c9.067,2.977 19.42,4.466 31.059,4.466c18.135,-0 31.736,-3.992 40.803,-11.977c9.067,-7.985 13.601,-19.15 13.601,-33.495c0,-9.473 -2.707,-17.661 -8.12,-24.563c-5.413,-6.902 -12.857,-13.127 -22.33,-18.676c-9.473,-5.549 -22.465,-11.977 -38.976,-19.285c-22.465,-10.285 -41.074,-22.533 -55.825,-36.743c-14.751,-14.21 -22.127,-33.495 -22.127,-57.855c0,-15.157 3.925,-28.894 11.774,-41.209c7.849,-12.315 19.556,-22.059 35.119,-29.232c15.563,-7.173 34.578,-10.759 57.043,-10.759c13.263,-0 24.969,0.947 35.119,2.842c10.15,1.895 21.18,4.466 33.089,7.714c7.037,1.895 12.315,3.113 15.834,3.654l-2.436,71.05l-32.48,-0l-8.526,-49.938c-2.436,-2.436 -7.308,-4.804 -14.616,-7.105c-7.308,-2.301 -15.428,-3.451 -24.36,-3.451c-16.24,-0 -28.488,3.722 -36.743,11.165c-8.255,7.443 -12.383,17.39 -12.383,29.841c0,10.015 3.045,18.676 9.135,25.984c6.09,7.308 13.466,13.466 22.127,18.473c8.661,5.007 22.33,12.112 41.006,21.315c15.157,7.308 28.149,14.481 38.976,21.518c10.827,7.037 20.165,16.172 28.014,27.405c7.849,11.233 11.774,24.428 11.774,39.585c0,14.887 -3.722,29.097 -11.165,42.63c-7.443,13.533 -19.623,24.766 -36.54,33.698c-16.917,8.932 -38.502,13.398 -64.757,13.398Z" style="fill:#fff;fill-rule:nonzero;"/>

</g>

<g>

    <path d="M332.674,136.271l-0,-90.235c-0,-9.816 -7.97,-17.786 -17.787,-17.786c-9.816,0 -17.786,7.97 -17.786,17.786l0,90.235c0,9.817 7.97,17.786 17.786,17.786c9.817,0 17.787,-7.969 17.787,-17.786Z" style="fill:#fff;fill-opacity:0.62;"/>

    <path d="M326.396,492.537l0,-51.027c0,-6.352 -5.157,-11.509 -11.509,-11.509c-6.352,0 -11.508,5.157 -11.508,11.509l-0,51.027c-0,6.351 5.156,11.508 11.508,11.508c6.352,0 11.509,-5.157 11.509,-11.508Z" style="fill:#fff;"/>

<path d="M438.562,380.047l96.476,55.7c8.501,4.909 19.388,1.992 24.296,-6.51c4.908,-8.501 1.991,-19.388 -6.51,-24.296l-96.476,-55.701c-8.502,-4.908 -19.388,-1.991 -24.297,6.51c-4.908,8.502 -1.991,19.389 6.511,24.297Z" style="fill:#fff;fill-opacity:0.62;"/>

<path d="M92.509,435.747l96.476,-55.7c8.501,-4.908 11.419,-15.795 6.51,-24.297c-4.908,-8.501 -15.795,-11.418 -24.296,-6.51l-96.476,55.701c-8.502,4.908 -11.419,15.795 -6.511,24.296c4.909,8.502 15.796,11.419 24.297,6.51Z" style="fill:#fff;fill-opacity:0.62;"/>

<path d="M323.001,120.443c-5.056,-2.592 -11.047,-2.612 -16.12,-0.054l-134.796,67.955c-5.997,3.023 -9.779,9.166 -9.779,15.882l-0,161.531c-0,6.429 3.468,12.357 9.072,15.506l134.796,75.753c5.344,3.003 11.859,3.043 17.24,0.104l132.567,-72.411c5.709,-3.118 9.26,-9.104 9.26,-15.609l-0,-164.874c-0,-6.673 -3.735,-12.784 -9.673,-15.828l-132.567,-67.955Zm-8.181,35.781l114.848,58.871c0,0 0,143.453 0,143.453c0,0 -114.658,62.629 -114.658,62.629c-0,-0 -117.132,-65.826 -117.132,-65.826c0,-0 0,-140.173 0,-140.173l116.942,-58.954Z" style="fill:#fff;fill-opacity:0.77;"/>

<path d="M314.887,239.112c-22.217,-0 -40.255,18.037 -40.255,40.254c0,22.218 18.038,40.255 40.255,40.255c22.218,0 40.255,-18.037 40.255,-40.255c0,-22.217 -18.037,-40.254 -40.255,-40.254Zm0,12.555c15.288,-0 27.7,12.411 27.7,27.699c0,15.288 -12.412,27.7 -27.7,27.7c-15.288,0 -27.699,-12.412 -27.699,-27.7c-0,-15.288 12.411,-27.699 27.699,-27.699Z" style="fill:#fff;"/>

<path d="M105.453,122.642c-22.217,0 -40.255,18.038 -40.255,40.255c0,22.217 18.038,40.255 40.255,40.255c22.217,-0 40.255,-18.038 40.255,-40.255c0,-22.217 -18.038,-40.255 -40.255,-40.255Zm0,12.555c15.288,0 27.7,12.412 27.7,27.7c0,15.288 -12.412,27.7 -27.7,27.7c-15.288,-0 -27.7,-12.412 -27.7,-27.7c0,-15.288 12.412,-27.7 27.7,-27.7Z" style="fill:#fff;"/>

<path d="M314.887,491.49c-22.217,0 -40.255,18.038 -40.255,40.255c0,22.217 18.038,40.255 40.255,40.255c22.218,0 40.255,-18.038 40.255,-40.255c0,-22.217 -18.037,-40.255 -40.255,-40.255Zm0,12.555c15.288,0 27.7,12.412 27.7,27.7c0,15.288 -12.412,27.7 -27.7,27.7c-15.288,-0 -27.699,-12.412 -27.699,-27.7c-0,-15.288 12.411,-27.7 27.699,-27.7Z" style="fill:#fff;"/>

<path d="M520.86,122.642c-22.218,0 -40.255,18.038 -40.255,40.255c-0,22.217 18.037,40.255 40.255,40.255c22.217,-0 40.255,-18.038 40.255,-40.255c-0,-22.217 -18.038,-40.255 -40.255,-40.255Zm-0,12.555c15.288,0 27.7,12.412 27.7,27.7c-0,15.288 -12.412,27.7 -27.7,27.7c-15.288,-0 -27.7,-12.412 -27.7,-27.7c-0,-15.288 12.412,-27.7 27.7,-27.7Z" style="fill:#fff;"/>

<path d="M326.396,308.122l-23.017,0l-0,131.16c-0,6.352 5.156,11.509 11.508,11.509c6.352,-0 11.509,-5.157 11.509,-11.509l0,-131.16Zm-44.728,-32.227l11.198,-20.085l-147.868,-83.405c-5.557,-3.077 -12.567,-1.064 -15.644,4.493c-3.077,5.557 -1.063,12.566 4.494,15.643l147.82,83.354Z" style="fill:#fff;"/>

<path d="M354.088,269.128l138.478,-76.572c5.535,-3.117 7.499,-10.14 4.383,-15.675c-3.117,-5.535 -10.14,-7.499 -15.675,-4.382l-138.478,76.572c-5.535,3.116 -7.499,10.14 -4.382,15.675c3.116,5.535 10.14,7.498 15.674,4.382Z" style="fill:#fff;"/>

</g>

<g>

    <path d="M716.38,563.651c-17.086,-0 -31.649,-3.689 -43.687,-11.068c-12.038,-7.378 -21.164,-17.746 -27.378,-31.105c-6.213,-13.359 -9.32,-29.047 -9.32,-47.066c0,-17.397 3.651,-32.775 10.951,-46.134c7.301,-13.359 17.32,-23.727 30.057,-31.106c12.738,-7.378 27.028,-11.067 42.872,-11.067c11.961,-0 26.329,1.864 43.105,5.592l7.689,1.398l-2.33,41.94l-15.611,-0l-5.825,-29.591c-2.174,-1.864 -5.941,-3.456 -11.3,-4.777c-5.359,-1.32 -11.922,-1.98 -19.689,-1.98c-9.941,-0 -18.795,2.835 -26.562,8.504c-7.766,5.67 -13.863,14.019 -18.29,25.048c-4.427,11.029 -6.641,24.232 -6.641,39.61c0,14.601 1.942,27.882 5.825,39.843c3.884,11.961 9.786,21.475 17.708,28.542c7.922,7.068 17.708,10.602 29.358,10.602c8.233,-0 14.563,-0.699 18.99,-2.097c4.427,-1.398 8.194,-3.417 11.3,-6.058l9.786,-22.834l14.679,1.864l-5.592,33.086c-3.262,0.155 -8.077,1.243 -14.446,3.262c-5.592,1.709 -10.989,3.068 -16.193,4.077c-5.204,1.01 -11.689,1.515 -19.456,1.515Z" style="fill:#fff;fill-rule:nonzero;"/>

    <path d="M956.603,563.651c-15.844,-0 -29.241,-3.65 -40.192,-10.951c-10.951,-7.301 -19.223,-17.592 -24.815,-30.873c-5.592,-13.281 -8.388,-28.697 -8.388,-46.25c0,-17.863 3.379,-33.552 10.136,-47.066c6.757,-13.514 16.038,-23.96 27.843,-31.339c11.806,-7.378 25.087,-11.067 39.843,-11.067c24.232,-0 42.756,7.65 55.571,22.95c12.815,15.301 19.222,36.465 19.222,63.493c0,18.174 -3.456,34.134 -10.368,47.881c-6.912,13.747 -16.388,24.388 -28.426,31.921c-12.038,7.534 -25.514,11.301 -40.426,11.301Zm3.029,-165.43c-15.067,-0 -26.95,6.563 -35.649,19.688c-8.698,13.126 -13.048,32.349 -13.048,57.668c0,23.3 4.233,41.746 12.699,55.337c8.466,13.592 20.31,20.388 35.532,20.388c14.912,-0 26.757,-6.757 35.533,-20.271c8.776,-13.514 13.164,-32.931 13.164,-58.25c0,-23.455 -4.194,-41.746 -12.582,-54.872c-8.388,-13.125 -20.271,-19.688 -35.649,-19.688Z" style="fill:#fff;fill-rule:nonzero;"/>

<path d="M1227.12,562.952c-22.834,-0 -39.648,-6.097 -50.444,-18.291c-10.796,-12.193 -16.194,-31.105 -16.194,-56.735l0,-85.511l-16.543,-2.796l0,-11.65l62.211,-0l0,11.65l-19.805,3.029l0,87.841c0,21.125 3.767,36.348 11.301,45.668c7.534,9.32 18.368,13.98 32.503,13.98c14.136,-0 24.737,-4.971 31.805,-14.912c7.068,-9.941 10.601,-24.387 10.601,-43.338l0,-89.239l-19.572,-3.029l0,-11.65l54.289,-0l0,11.65l-17.009,2.796l0,88.307c0,24.232 -5.747,42.328 -17.242,54.289c-11.494,11.961 -26.795,17.941 -45.901,17.941Z" style="fill:#fff;fill-rule:nonzero;"/>

<path d="M1416.31,549.671l19.339,-2.33l0,-144.926l-18.174,-3.029l0,-11.417l30.523,-0c4.35,-0 10.252,-0.311 17.708,-0.932c7.767,-0.621 13.825,-0.932 18.174,-0.932c22.834,-0 39.106,3.689 48.814,11.067c9.708,7.379 14.562,18.99 14.562,34.834c0,11.029 -3.067,21.125 -9.203,30.29c-6.136,9.165 -14.563,15.378 -25.281,18.64c4.971,2.641 9.592,7.184 13.864,13.63c4.272,6.447 9.514,15.417 15.727,26.912c4.816,8.699 8.505,15.067 11.068,19.106c2.563,4.039 5.009,6.291 7.339,6.757l9.087,2.33l0,11.417l-32.154,-0c-2.485,-0 -5.281,-2.68 -8.388,-8.039c-3.106,-5.359 -7.223,-13.63 -12.349,-24.814c-5.592,-12.271 -10.446,-22.019 -14.562,-29.242c-4.116,-7.223 -8.194,-11.844 -12.233,-13.863c-16.62,-0 -26.484,-0.078 -29.591,-0.233l0,62.444l23.067,2.33l0,11.417l-67.337,-0l0,-11.417Zm71.997,-77.123c9.942,-0 17.786,-3.262 23.533,-9.786c5.748,-6.524 8.621,-16.232 8.621,-29.125c0,-11.339 -2.912,-19.999 -8.737,-25.98c-5.825,-5.98 -15.883,-8.97 -30.174,-8.97c-4.97,-0 -9.941,0.311 -14.912,0.932c-3.106,0.311 -5.126,0.466 -6.058,0.466l0,72.23c2.33,0.155 7.146,0.233 14.446,0.233l13.281,-0Z" style="fill:#fff;fill-rule:nonzero;"/>

<path d="M1732.03,563.651c-8.077,-0 -15.3,-0.699 -21.669,-2.097c-6.368,-1.398 -13.358,-3.262 -20.97,-5.592c-4.66,-1.709 -8.155,-2.641 -10.485,-2.796l1.864,-42.173l14.912,-0l3.961,30.29c2.641,2.485 6.952,4.699 12.932,6.64c5.98,1.942 12.543,2.913 19.688,2.913c11.806,-0 20.776,-2.641 26.912,-7.922c6.136,-5.281 9.203,-12.582 9.203,-21.902c0,-6.058 -1.669,-11.262 -5.009,-15.611c-3.34,-4.349 -7.767,-8.077 -13.281,-11.184c-5.514,-3.107 -13.087,-6.757 -22.718,-10.951c-8.698,-3.883 -16.271,-7.844 -22.717,-11.883c-6.446,-4.039 -12.038,-9.437 -16.776,-16.194c-4.738,-6.757 -7.107,-14.873 -7.107,-24.348c0,-8.543 2.292,-16.194 6.874,-22.951c4.582,-6.757 11.184,-12.077 19.805,-15.96c8.621,-3.883 18.679,-5.825 30.173,-5.825c7.146,-0 13.476,0.544 18.99,1.631c5.514,1.087 11.766,2.563 18.756,4.427c3.107,1.087 5.748,1.786 7.922,2.097l-1.398,39.144l-14.213,-0l-4.66,-28.659c-1.553,-1.553 -4.776,-3.029 -9.669,-4.427c-4.893,-1.398 -10.213,-2.097 -15.961,-2.097c-10.718,-0 -18.834,2.252 -24.348,6.757c-5.514,4.505 -8.272,11.029 -8.272,19.572c0,6.213 1.67,11.417 5.01,15.611c3.34,4.194 7.495,7.767 12.465,10.718c4.971,2.951 12.893,6.99 23.766,12.116c10.097,4.815 18.33,9.165 24.698,13.048c6.369,3.883 11.845,8.97 16.427,15.261c4.582,6.291 6.873,13.786 6.873,22.485c0,8.233 -2.291,16.155 -6.873,23.766c-4.582,7.611 -11.572,13.863 -20.97,18.756c-9.398,4.893 -20.776,7.34 -34.135,7.34Z" style="fill:#fff;fill-rule:nonzero;"/>

<path d="M1927.75,402.415l-19.106,-2.796l0,-11.65l118.597,-0l3.262,36.115l-13.281,-0l-6.757,-22.601l-57.784,-1.398l0,65.706l38.911,-0.699l3.262,-19.339l12.815,-0l0,53.59l-12.815,-0l-3.262,-20.038l-38.911,-0.699l0,69.434l65.706,-2.33l12.349,-29.358l13.747,4.194l-6.757,40.542l-129.315,-0l0,-11.417l19.339,-2.33l0,-144.926Z" style="fill:#fff;fill-rule:nonzero;"/>

</g>

</g>

</svg>
